<?xml version="1.0" encoding="UTF-8" standalone="no"?>
<!DOCTYPE svg PUBLIC "-//W3C//DTD SVG 1.1//EN" "http://www.w3.org/Graphics/SVG/1.1/DTD/svg11.dtd">
<svg width="100%" height="100%" viewBox="0 0 96 96" version="1.1" xmlns="http://www.w3.org/2000/svg" xmlns:xlink="http://www.w3.org/1999/xlink" xml:space="preserve" xmlns:serif="http://www.serif.com/" style="fill-rule:evenodd;clip-rule:evenodd;stroke-linejoin:round;stroke-miterlimit:2;">
    <g>
        <path d="M41.202,0C43.271,0 44.95,1.68 44.95,3.748L44.95,41.202C44.95,43.271 43.271,44.95 41.202,44.95L3.748,44.95C1.68,44.95 0,43.271 0,41.202L0,3.748C0,1.68 1.68,0 3.748,0L41.202,0ZM35.358,7.014L9.592,7.014C8.169,7.014 7.014,8.169 7.014,9.592L7.014,35.358C7.014,36.781 8.169,37.936 9.592,37.936L35.358,37.936C36.781,37.936 37.936,36.781 37.936,35.358L37.936,9.592C37.936,8.169 36.781,7.014 35.358,7.014Z"/>
        <path d="M32.258,10.734C33.339,10.734 34.216,11.612 34.216,12.692L34.216,32.258C34.216,33.339 33.339,34.216 32.258,34.216L12.692,34.216C11.612,34.216 10.734,33.339 10.734,32.258L10.734,12.692C10.734,11.612 11.612,10.734 12.692,10.734L32.258,10.734ZM26.312,17.87L18.638,17.87C18.215,17.87 17.87,18.215 17.87,18.638L17.87,26.312C17.87,26.736 18.215,27.08 18.638,27.08L26.312,27.08C26.736,27.08 27.08,26.736 27.08,26.312L27.08,18.638C27.08,18.215 26.736,17.87 26.312,17.87Z"/>
    </g>
    <g transform="matrix(1,0,0,1,51.0496,-7.10543e-15)">
        <path d="M41.202,0C43.271,0 44.95,1.68 44.95,3.748L44.95,41.202C44.95,43.271 43.271,44.95 41.202,44.95L3.748,44.95C1.68,44.95 0,43.271 0,41.202L0,3.748C0,1.68 1.68,0 3.748,0L41.202,0ZM35.358,7.014L9.592,7.014C8.169,7.014 7.014,8.169 7.014,9.592L7.014,35.358C7.014,36.781 8.169,37.936 9.592,37.936L35.358,37.936C36.781,37.936 37.936,36.781 37.936,35.358L37.936,9.592C37.936,8.169 36.781,7.014 35.358,7.014Z"/>
        <path d="M32.258,10.734C33.339,10.734 34.216,11.612 34.216,12.692L34.216,32.258C34.216,33.339 33.339,34.216 32.258,34.216L12.692,34.216C11.612,34.216 10.734,33.339 10.734,32.258L10.734,12.692C10.734,11.612 11.612,10.734 12.692,10.734L32.258,10.734ZM26.312,17.87L18.638,17.87C18.215,17.87 17.87,18.215 17.87,18.638L17.87,26.312C17.87,26.736 18.215,27.08 18.638,27.08L26.312,27.08C26.736,27.08 27.08,26.736 27.08,26.312L27.08,18.638C27.08,18.215 26.736,17.87 26.312,17.87Z"/>
    </g>
    <g transform="matrix(1,0,0,1,0,51.0496)">
        <path d="M41.202,0C43.271,0 44.95,1.68 44.95,3.748L44.95,41.202C44.95,43.271 43.271,44.95 41.202,44.95L3.748,44.95C1.68,44.95 0,43.271 0,41.202L0,3.748C0,1.68 1.68,0 3.748,0L41.202,0ZM35.358,7.014L9.592,7.014C8.169,7.014 7.014,8.169 7.014,9.592L7.014,35.358C7.014,36.781 8.169,37.936 9.592,37.936L35.358,37.936C36.781,37.936 37.936,36.781 37.936,35.358L37.936,9.592C37.936,8.169 36.781,7.014 35.358,7.014Z"/>
        <path d="M32.258,10.734C33.339,10.734 34.216,11.612 34.216,12.692L34.216,32.258C34.216,33.339 33.339,34.216 32.258,34.216L12.692,34.216C11.612,34.216 10.734,33.339 10.734,32.258L10.734,12.692C10.734,11.612 11.612,10.734 12.692,10.734L32.258,10.734ZM26.312,17.87L18.638,17.87C18.215,17.87 17.87,18.215 17.87,18.638L17.87,26.312C17.87,26.736 18.215,27.08 18.638,27.08L26.312,27.08C26.736,27.08 27.08,26.736 27.08,26.312L27.08,18.638C27.08,18.215 26.736,17.87 26.312,17.87Z"/>
    </g>
    <g>
        <path d="M54.557,95.992C54.222,95.97 53.892,95.905 53.574,95.795C53.039,95.61 52.548,95.302 52.148,94.902C51.747,94.501 51.439,94.011 51.254,93.475C51.118,93.082 51.051,92.668 51.05,92.252L51.05,83.414L58.064,83.414L58.064,86.408C58.064,86.699 58.112,86.989 58.209,87.264C58.337,87.627 58.547,87.959 58.819,88.23C59.091,88.502 59.423,88.712 59.786,88.84C60.061,88.937 60.351,88.985 60.642,88.986L60.642,96L54.557,96L54.557,95.992ZM92.252,96L86.773,96L86.408,88.986L86.424,88.986C87.84,88.977 88.986,87.825 88.986,86.408L96,86.36L96,92.252C95.997,92.668 95.931,93.081 95.795,93.475C95.599,94.047 95.258,94.569 94.818,94.983C94.446,95.332 94.002,95.606 93.522,95.779C93.122,95.923 92.701,95.994 92.276,96L92.252,96ZM88.986,60.625C88.977,59.21 87.825,58.064 86.408,58.064L86.336,51.05L92.252,51.05C94.32,51.05 96,52.729 96,54.798L96,60.815L88.986,60.642L88.986,60.625ZM51.05,54.798C51.05,52.729 52.729,51.05 54.798,51.05L60.854,51.05L60.642,58.064L60.625,58.064C59.221,58.072 58.081,59.207 58.064,60.609L58.064,60.642L51.05,60.815L51.05,54.798Z" style="fill:rgb(160,0,0);"/>
        <g transform="matrix(1.10577,0,0,1.56026,-22.1926,-44.7305)">
            <path d="M72.579,66.231C72.579,65.09 71.271,64.163 69.66,64.163L69.155,64.163C67.544,64.163 66.236,65.09 66.236,66.231L66.236,71.456C66.236,72.598 67.544,73.525 69.155,73.525L69.66,73.525C71.271,73.525 72.579,72.598 72.579,71.456L72.579,66.231Z" style="fill:rgb(160,0,0);"/>
        </g>
        <g transform="matrix(1.10577,0,0,1.56026,-22.1926,-23.3836)">
            <path d="M72.579,66.231C72.579,65.09 71.271,64.163 69.66,64.163L69.155,64.163C67.544,64.163 66.236,65.09 66.236,66.231L66.236,71.456C66.236,72.598 67.544,73.525 69.155,73.525L69.66,73.525C71.271,73.525 72.579,72.598 72.579,71.456L72.579,66.231Z" style="fill:rgb(160,0,0);"/>
        </g>
        <g transform="matrix(1.10577,0,0,1.56026,15.7439,-44.7305)">
            <path d="M72.579,66.231C72.579,65.09 71.271,64.163 69.66,64.163L69.155,64.163C67.544,64.163 66.236,65.09 66.236,66.231L66.236,71.456C66.236,72.598 67.544,73.525 69.155,73.525L69.66,73.525C71.271,73.525 72.579,72.598 72.579,71.456L72.579,66.231Z" style="fill:rgb(160,0,0);"/>
        </g>
        <g transform="matrix(1.10577,0,0,1.56026,15.7439,-23.3836)">
            <path d="M72.579,66.231C72.579,65.09 71.271,64.163 69.66,64.163L69.155,64.163C67.544,64.163 66.236,65.09 66.236,66.231L66.236,71.456C66.236,72.598 67.544,73.525 69.155,73.525L69.66,73.525C71.271,73.525 72.579,72.598 72.579,71.456L72.579,66.231Z" style="fill:rgb(160,0,0);"/>
        </g>
        <g transform="matrix(6.77088e-17,1.10577,-1.56026,9.55384e-17,191.612,15.7439)">
            <path d="M72.579,66.231C72.579,65.09 71.271,64.163 69.66,64.163L69.155,64.163C67.544,64.163 66.236,65.09 66.236,66.231L66.236,71.456C66.236,72.598 67.544,73.525 69.155,73.525L69.66,73.525C71.271,73.525 72.579,72.598 72.579,71.456L72.579,66.231Z" style="fill:rgb(160,0,0);"/>
        </g>
        <g transform="matrix(6.77088e-17,1.10577,-1.56026,9.55384e-17,170.265,15.7439)">
            <path d="M72.579,66.231C72.579,65.09 71.271,64.163 69.66,64.163L69.155,64.163C67.544,64.163 66.236,65.09 66.236,66.231L66.236,71.456C66.236,72.598 67.544,73.525 69.155,73.525L69.66,73.525C71.271,73.525 72.579,72.598 72.579,71.456L72.579,66.231Z" style="fill:rgb(160,0,0);"/>
        </g>
        <g transform="matrix(6.77088e-17,1.10577,-1.56026,9.55384e-17,191.612,-22.1926)">
            <path d="M72.579,66.231C72.579,65.09 71.271,64.163 69.66,64.163L69.155,64.163C67.544,64.163 66.236,65.09 66.236,66.231L66.236,71.456C66.236,72.598 67.544,73.525 69.155,73.525L69.66,73.525C71.271,73.525 72.579,72.598 72.579,71.456L72.579,66.231Z" style="fill:rgb(160,0,0);"/>
        </g>
        <g transform="matrix(6.77088e-17,1.10577,-1.56026,9.55384e-17,170.265,-22.1926)">
            <path d="M72.579,66.231C72.579,65.09 71.271,64.163 69.66,64.163L69.155,64.163C67.544,64.163 66.236,65.09 66.236,66.231L66.236,71.456C66.236,72.598 67.544,73.525 69.155,73.525L69.66,73.525C71.271,73.525 72.579,72.598 72.579,71.456L72.579,66.231Z" style="fill:rgb(160,0,0);"/>
        </g>
    </g>
</svg>
